<svg id="Layer_1" data-name="Layer 1" xmlns="http://www.w3.org/2000/svg" viewBox="0 0 512 512"><title>hammer-wrench-glyph</title><path d="M129.77,443.48a86.37,86.37,0,0,1,24-46.44L383.87,165.93a86.4,86.4,0,0,1,61.7-25.51h0c20.57-.3,40.4-9.4,53.28-26.58,16.77-22.39,17.1-52.27,3.26-76L474.56,86.18c-14.49,11.65-36.72,10.5-50.19-2.93a37,37,0,0,1-10.21-33.3L442.55.41C419.72-1.29,397,7.85,382.79,26.83c-11.72,15.6-15.39,34.83-11.87,53.12a86.24,86.24,0,0,1-15.9,39L106.59,368.39a85.79,85.79,0,0,1-36.4,15.67c-22.06-2.79-44.4,5.49-58.14,23.79-15.37,20.48-15.66,47.78-3,69.54l25.19-44.22c13.25-10.66,33.58-9.62,45.93,2.66a33.83,33.83,0,0,1,9.33,30.44l-26,45.33c20.9,1.54,41.66-6.81,54.68-24.19A60.77,60.77,0,0,0,129.77,443.48Z" fill="#434040"/><path d="M492.45,472.1,465.13,501a14.1,14.1,0,0,1-20,.38L120.77,184.94c-.13-.13-.24-.26-.36-.4-4.16-2.42-22.16-12.48-32.91-12.48-12.25,0-44.93,12.13-58.48,111.41l-3.15-.37S-21.9,150,89.65,66.82c0,0,41.93,6.26,57.62-35.93L172.94,2.75l44.42,42L192.07,72.22s-18.9-9.59-41.18,17.17c-19.55,23.49.1,49.42,5.22,55.44a12,12,0,0,1,1.07.88L491.74,452.08A14,14,0,0,1,492.45,472.1Z" fill="#434040"/></svg>